# xmcd
#
# Track frame offsets: 
#        150
#        8616
#        16291
#        26728
#        38784
#        51981
#        66730
#        79748
#        94171
#        103075
#        123517
#        138375
#        151311
#        161060
#        172471
#        187134
#        201449
#        211341
#        225919
#        238225
#
# Disc length: 3359 seconds
#
# Revision: 3
# Processed by: cddbd v1.5.2PL0 Copyright (c) Steve Scherf et al.
# Submitted via: ExactAudioCopy v1.0b3
#
DISCID=220d1d14
DTITLE=Sinatra, Frank - Blue Skies [Disc 1]
DYEAR=2001
DGENRE=Easy Listening
TTITLE0=Dance Ballerina Dance
TTITLE1=I'll String Along With You
TTITLE2=Speak Low
TTITLE3=There Are Such Things
TTITLE4=Whispering
TTITLE5=Blue Skies
TTITLE6=How About You
TTITLE7=Just As Though You Were Here
TTITLE8=On The Sunny Side Of The Street
TTITLE9=Stormy Weather
TTITLE10=Close To You
TTITLE11=I Couldn't Sleep A Wink Last Night
TTITLE12=I'm In The Mood For Love
TTITLE13=My Shining Hour
TTITLE14=Sunday, Monday Or Always
TTITLE15=Everything Happens To Me
TTITLE16=I Wonder Who's Kissing Her Now
TTITLE17=It's Always You
TTITLE18=Saturday Night (Is The Loneliest Night Of The Week)
TTITLE19=You'll Never Know
EXTD=
EXTT0=
EXTT1=
EXTT2=
EXTT3=
EXTT4=
EXTT5=
EXTT6=
EXTT7=
EXTT8=
EXTT9=
EXTT10=
EXTT11=
EXTT12=
EXTT13=
EXTT14=
EXTT15=
EXTT16=
EXTT17=
EXTT18=
EXTT19=
PLAYORDER=
